<svg width="868" height="71" viewBox="0 0 868 71" fill="none" xmlns="http://www.w3.org/2000/svg">
<path d="M78.2366 0.998746V70H61.4286V28.6189L45.9967 70H32.4323L16.9021 28.5206V70H0.0941279V0.998746H19.9492L39.3128 48.7688L58.4798 0.998746H78.2366ZM133.277 57.8117H107.525L103.396 70H85.802L110.768 0.998746H130.23L155.196 70H137.406L133.277 57.8117ZM128.952 44.8371L120.401 19.576L111.948 44.8371H128.952ZM197.984 70L183.633 43.9525H179.603V70H162.795V0.998746H191.005C196.444 0.998746 201.063 1.94891 204.864 3.84922C208.73 5.74954 211.613 8.37067 213.514 11.7126C215.414 14.989 216.364 18.6586 216.364 22.7214C216.364 27.3083 215.054 31.4039 212.433 35.0079C209.877 38.612 206.076 41.1676 201.031 42.6747L216.954 70H197.984ZM179.603 32.0591H190.022C193.102 32.0591 195.395 31.3056 196.902 29.7984C198.475 28.2913 199.261 26.1616 199.261 23.4094C199.261 20.7883 198.475 18.7241 196.902 17.217C195.395 15.7098 193.102 14.9563 190.022 14.9563H179.603V32.0591ZM266.92 70L243.723 39.5294V70H226.915V0.998746H243.723V31.2728L266.724 0.998746H286.481L259.745 34.8113L287.463 70H266.92ZM312.259 14.4648V28.4223H334.768V41.3969H312.259V56.5339H337.717V70H295.451V0.998746H337.717V14.4648H312.259ZM398.267 0.998746V14.4648H379.984V70H363.176V14.4648H344.894V0.998746H398.267ZM423.51 0.998746V70H406.702V0.998746H423.51ZM497.418 70H480.61L452.499 27.4394V70H435.691V0.998746H452.499L480.61 43.7559V0.998746H497.418V70ZM555.406 22.8197C554.161 20.5262 552.359 18.7897 550 17.6102C547.707 16.3651 544.987 15.7426 541.842 15.7426C536.403 15.7426 532.045 17.5446 528.769 21.1487C525.493 24.6872 523.854 29.438 523.854 35.4011C523.854 41.7573 525.558 46.7375 528.966 50.3415C532.439 53.88 537.189 55.6493 543.218 55.6493C547.346 55.6493 550.819 54.6009 553.637 52.504C556.52 50.4071 558.617 47.3928 559.928 43.4611H538.598V31.0762H575.163V46.7047C573.918 50.8985 571.788 54.7974 568.774 58.4015C565.825 62.0056 562.057 64.9216 557.47 67.1495C552.883 69.3775 547.707 70.4915 541.94 70.4915C535.125 70.4915 529.031 69.0171 523.658 66.0683C518.35 63.054 514.189 58.893 511.175 53.5852C508.226 48.2774 506.751 42.216 506.751 35.4011C506.751 28.5861 508.226 22.5248 511.175 17.217C514.189 11.8437 518.35 7.68263 523.658 4.73386C528.966 1.71956 535.027 0.212406 541.842 0.212406C550.098 0.212406 557.044 2.21102 562.68 6.20824C568.381 10.2055 572.149 15.7426 573.983 22.8197H555.406ZM654.94 0.998746V14.4648H636.658V70H619.85V14.4648H601.567V0.998746H654.94ZM680.184 14.4648V28.4223H702.693V41.3969H680.184V56.5339H705.641V70H663.376V0.998746H705.641V14.4648H680.184ZM759.507 57.8117H733.755L729.626 70H712.032L736.998 0.998746H756.46L781.426 70H763.635L759.507 57.8117ZM755.182 44.8371L746.631 19.576L738.178 44.8371H755.182ZM867.167 0.998746V70H850.359V28.6189L834.927 70H821.363L805.833 28.5206V70H789.025V0.998746H808.88L828.244 48.7688L847.411 0.998746H867.167Z" fill="url(#paint0_linear_402_33)"/>
<defs>
<linearGradient id="paint0_linear_402_33" x1="-6" y1="109" x2="874" y2="109" gradientUnits="userSpaceOnUse">
<stop stop-color="#00F0FF"/>
<stop offset="0.46875" stop-color="#5773FF"/>
<stop offset="1" stop-color="#FF007A"/>
</linearGradient>
</defs>
</svg>
